<svg width="120" height="120" viewBox="0 0 120 120" xmlns="http://www.w3.org/2000/svg">
  <!-- Radyo Gövdesi -->
  <rect x="15" y="30" width="90" height="70" rx="8" ry="8" 
        fill="#4A4A4A" stroke="#2A2A2A" stroke-width="2"/>
  
  <!-- Radyo Ön Paneli -->
  <rect x="20" y="35" width="80" height="60" rx="4" ry="4" 
        fill="#6B7280" stroke="#374151" stroke-width="1"/>
  
  <!-- Speaker Mesh -->
  <rect x="25" y="40" width="35" height="25" rx="2" ry="2" 
        fill="#374151"/>
  
  <!-- Speaker Holes -->
  <circle cx="30" cy="47" r="1.5" fill="#1F2937"/>
  <circle cx="35" cy="47" r="1.5" fill="#1F2937"/>
  <circle cx="40" cy="47" r="1.5" fill="#1F2937"/>
  <circle cx="45" cy="47" r="1.5" fill="#1F2937"/>
  <circle cx="50" cy="47" r="1.5" fill="#1F2937"/>
  <circle cx="55" cy="47" r="1.5" fill="#1F2937"/>
  
  <circle cx="30" cy="52" r="1.5" fill="#1F2937"/>
  <circle cx="35" cy="52" r="1.5" fill="#1F2937"/>
  <circle cx="40" cy="52" r="1.5" fill="#1F2937"/>
  <circle cx="45" cy="52" r="1.5" fill="#1F2937"/>
  <circle cx="50" cy="52" r="1.5" fill="#1F2937"/>
  <circle cx="55" cy="52" r="1.5" fill="#1F2937"/>
  
  <circle cx="30" cy="57" r="1.5" fill="#1F2937"/>
  <circle cx="35" cy="57" r="1.5" fill="#1F2937"/>
  <circle cx="40" cy="57" r="1.5" fill="#1F2937"/>
  <circle cx="45" cy="57" r="1.5" fill="#1F2937"/>
  <circle cx="50" cy="57" r="1.5" fill="#1F2937"/>
  <circle cx="55" cy="57" r="1.5" fill="#1F2937"/>
  
  <!-- Frekans Gösterge Paneli -->
  <rect x="65" y="40" width="30" height="15" rx="2" ry="2" 
        fill="#1F2937" stroke="#374151" stroke-width="1"/>
  
  <!-- Frekans Çizgileri -->
  <line x1="68" y1="43" x2="68" y2="52" stroke="#8B5CF6" stroke-width="0.5"/>
  <line x1="70" y1="45" x2="70" y2="50" stroke="#8B5CF6" stroke-width="0.5"/>
  <line x1="72" y1="44" x2="72" y2="51" stroke="#8B5CF6" stroke-width="0.5"/>
  <line x1="74" y1="43" x2="74" y2="52" stroke="#8B5CF6" stroke-width="0.5"/>
  <line x1="76" y1="45" x2="76" y2="50" stroke="#8B5CF6" stroke-width="0.5"/>
  <line x1="78" y1="44" x2="78" y2="51" stroke="#8B5CF6" stroke-width="0.5"/>
  <line x1="80" y1="43" x2="80" y2="52" stroke="#8B5CF6" stroke-width="0.5"/>
  <line x1="82" y1="45" x2="82" y2="50" stroke="#8B5CF6" stroke-width="0.5"/>
  <line x1="84" y1="44" x2="84" y2="51" stroke="#8B5CF6" stroke-width="0.5"/>
  <line x1="86" y1="43" x2="86" y2="52" stroke="#8B5CF6" stroke-width="0.5"/>
  <line x1="88" y1="45" x2="88" y2="50" stroke="#8B5CF6" stroke-width="0.5"/>
  <line x1="90" y1="44" x2="90" y2="51" stroke="#8B5CF6" stroke-width="0.5"/>
  <line x1="92" y1="43" x2="92" y2="52" stroke="#8B5CF6" stroke-width="0.5"/>
  
  <!-- Frekans İbresi -->
  <line x1="80" y1="47.5" x2="88" y2="47.5" stroke="#9333EA" stroke-width="2"/>
  <circle cx="88" cy="47.5" r="1" fill="#9333EA"/>
  
  <!-- Volume/Tuning Knobs -->
  <circle cx="30" cy="75" r="8" fill="#374151" stroke="#1F2937" stroke-width="2"/>
  <circle cx="30" cy="75" r="6" fill="#4B5563"/>
  <line x1="30" y1="69" x2="30" y2="75" stroke="#8B5CF6" stroke-width="2"/>
  
  <circle cx="90" cy="75" r="8" fill="#374151" stroke="#1F2937" stroke-width="2"/>
  <circle cx="90" cy="75" r="6" fill="#4B5563"/>
  <line x1="90" y1="69" x2="90" y2="75" stroke="#8B5CF6" stroke-width="2"/>
  
  <!-- Antenna -->
  <line x1="95" y1="30" x2="95" y2="15" stroke="#6B7280" stroke-width="3"/>
  <line x1="95" y1="15" x2="85" y2="8" stroke="#6B7280" stroke-width="2"/>
  <line x1="95" y1="15" x2="105" y2="8" stroke="#6B5CF6" stroke-width="2"/>
  
  <!-- Radio Waves -->
  <path d="M 105 25 Q 115 20 120 15" stroke="#8B5CF6" stroke-width="1.5" fill="none" opacity="0.7"/>
  <path d="M 108 28 Q 115 25 118 20" stroke="#9333EA" stroke-width="1.5" fill="none" opacity="0.5"/>
  <path d="M 110 31 Q 115 29 116 25" stroke="#A855F7" stroke-width="1.5" fill="none" opacity="0.3"/>
  
  <!-- Brand Name Area -->
  <rect x="25" y="82" width="70" height="8" rx="2" ry="2" 
        fill="#1F2937" stroke="#374151" stroke-width="0.5"/>
  
  <!-- Vintage Details -->
  <circle cx="25" cy="40" r="1" fill="#8B5CF6"/>
  <circle cx="95" cy="40" r="1" fill="#8B5CF6"/>
  <circle cx="25" cy="90" r="1" fill="#8B5CF6"/>
  <circle cx="95" cy="90" r="1" fill="#8B5CF6"/>
  
  <!-- Shadow/Depth -->
  <rect x="17" y="32" width="90" height="70" rx="8" ry="8" 
        fill="none" stroke="#000000" stroke-width="0.5" opacity="0.3"/>
</svg>