<svg width="1024" height="1024" viewBox="0 0 1024 1024" xmlns="http://www.w3.org/2000/svg">
  <defs>
    <linearGradient id="bg" x1="142" y1="98" x2="882" y2="926" gradientUnits="userSpaceOnUse">
      <stop offset="0" stop-color="#1D4ED8"/>
      <stop offset="0.48" stop-color="#7C3AED"/>
      <stop offset="1" stop-color="#EC4899"/>
    </linearGradient>
    <radialGradient id="glow" cx="0" cy="0" r="1" gradientUnits="userSpaceOnUse" gradientTransform="translate(512 420) rotate(90) scale(420)">
      <stop offset="0" stop-color="#FFFFFF" stop-opacity="0.30"/>
      <stop offset="0.56" stop-color="#FFFFFF" stop-opacity="0.08"/>
      <stop offset="1" stop-color="#FFFFFF" stop-opacity="0"/>
    </radialGradient>
    <filter id="shadow" x="-12%" y="-12%" width="124%" height="124%">
      <feDropShadow dx="0" dy="28" stdDeviation="34" flood-color="#160B3A" flood-opacity="0.38"/>
    </filter>
  </defs>

  <rect x="64" y="64" width="896" height="896" rx="224" fill="url(#bg)"/>
  <rect x="64" y="64" width="896" height="896" rx="224" fill="url(#glow)"/>
  <path d="M202 746V431c0-169 138-306 310-306s310 137 310 306v315" fill="none" stroke="#FFFFFF" stroke-width="70" stroke-linecap="round" opacity="0.94"/>
  <path d="M314 746V444c0-108 89-196 198-196s198 88 198 196v195" fill="none" stroke="#FFFFFF" stroke-width="54" stroke-linecap="round" opacity="0.78"/>
  <path d="M426 681V461c0-47 39-85 86-85s86 38 86 85v112" fill="none" stroke="#FFFFFF" stroke-width="42" stroke-linecap="round" opacity="0.62"/>

  <g filter="url(#shadow)">
    <rect x="286" y="524" width="452" height="244" rx="58" fill="#FFFFFF" fill-opacity="0.96"/>
    <rect x="333" y="574" width="234" height="34" rx="17" fill="#4F46E5"/>
    <rect x="333" y="634" width="234" height="34" rx="17" fill="#7C3AED"/>
    <rect x="333" y="694" width="182" height="34" rx="17" fill="#EC4899"/>
    <circle cx="647" cy="647" r="74" fill="none" stroke="#7C3AED" stroke-width="42"/>
    <path d="M703 524L744 292" stroke="#FFFFFF" stroke-width="24" stroke-linecap="round"/>
    <circle cx="748" cy="267" r="28" fill="#FFFFFF"/>
  </g>

  <text x="512" y="885" text-anchor="middle" font-family="Inter, Arial, sans-serif" font-size="96" font-weight="800" letter-spacing="10" fill="#FFFFFF">RT</text>
</svg>
